<?xml version="1.0" encoding="UTF-8"?>
    <svg id="Calque_1" data-name="Calque 1" xmlns="http://www.w3.org/2000/svg"
        xmlns:xlink="http://www.w3.org/1999/xlink" viewBox="0 0 432.24 284.16">
        <defs>
            <style>
                .cls-1 {
                    fill: #f6e81d;
                    stroke-width: 5px;
                }

                .cls-1,
                .cls-2 {
                    stroke: #2c4b9b;
                    stroke-miterlimit: 10;
                }

                .cls-3 {
                    filter: url(#drop-shadow-1);
                }

                .cls-4 {
                    filter: url(#drop-shadow-2);
                }

                .cls-2 {
                    fill: #b34d97;
                    stroke-width: .75px;
                }
            </style>
            <filter id="drop-shadow-1" filterUnits="userSpaceOnUse">
                <feOffset dx="7" dy="7" />
                <feGaussianBlur result="blur" stdDeviation="5" />
                <feFlood flood-color="#1d1d1b" flood-opacity=".5" />
                <feComposite in2="blur" operator="in" />
                <feComposite in="SourceGraphic" />
            </filter>
            <filter id="drop-shadow-2" filterUnits="userSpaceOnUse">
                <feOffset dx="7" dy="7" />
                <feGaussianBlur result="blur-2" stdDeviation="5" />
                <feFlood flood-color="#1d1d1b" flood-opacity=".5" />
                <feComposite in2="blur-2" operator="in" />
                <feComposite in="SourceGraphic" />
            </filter>
        </defs>
        <g class="cls-3">
            <path class="cls-1"
                d="m111.88,239.7c-8.92,0-17.84,5.94-26.76,17.83l-12.07-21.44c3.81-5.62,8.38-11,13.72-16.14h-2.08c-3.87,0-7.08-1.24-9.64-3.73-2.56-2.49-4.43-5.82-5.6-10-1.17-4.17-1.57-9.11-1.21-14.82.37-5.7,1.57-11.69,3.6-17.95l36.79-113.24c2.14-6.58,4.9-12.73,8.29-18.43,3.39-5.7,7.07-10.64,11.06-14.82,3.98-4.17,8.1-7.47,12.35-9.88s8.31-3.61,12.18-3.61,7.14,1.2,9.83,3.61,4.65,5.74,5.9,10c1.24,4.26,1.71,9.24,1.39,14.94-.32,5.7-1.52,11.77-3.61,18.19l-36.79,113.24c-3.65,11.24-9.04,21.12-16.17,29.64,4.04-1.45,7.84-2.17,11.41-2.17l-12.6,38.79Zm28.43-179.5c1.1-3.37.65-5.06-1.33-5.06-2.18,0-3.82,1.69-4.92,5.06l-36.79,113.24c-1.04,3.21-.48,4.82,1.71,4.82,1.98,0,3.5-1.6,4.54-4.82l36.79-113.24Z" />
            <path class="cls-1"
                d="m179.12,219.94c-3.5-3.85-6.8-5.78-9.87-5.78-.69,0-1.87.32-3.51.96-1.65.64-3.4,1.32-5.27,2.05-1.87.72-3.74,1.37-5.61,1.93-1.87.56-3.35.84-4.44.84-4.07,0-7.44-1.2-10.13-3.61-2.69-2.41-4.65-5.74-5.9-10-1.25-4.25-1.7-9.19-1.36-14.82.34-5.62,1.55-11.64,3.64-18.07l38.67-119.02h25.73l-38.67,119.02c-1.04,3.21-.52,4.82,1.56,4.82s3.5-1.6,4.54-4.82l38.67-119.02h25.72l-53.78,165.52Z" />
            <path class="cls-1"
                d="m216.88,219.94h-25.73l53.78-165.52h25.73l-53.78,165.52Zm61.54-189.86c-1.93,5.94-4.65,10.72-8.15,14.34-3.5,3.61-7.09,5.42-10.76,5.42s-6.17-1.77-7.5-5.3c-1.33-3.53-1-8.35.98-14.46,1.88-5.78,4.63-10.44,8.26-13.97,3.62-3.53,7.27-5.3,10.94-5.3s6.09,1.77,7.27,5.3c1.18,3.54.83,8.19-1.05,13.97Z" />
            <path class="cls-1"
                d="m286.48,219.94h-57.4l9.39-28.91,57.46-94.93h-26.62l13.54-41.68h57.4l-9.39,28.91-57.61,94.93h26.77l-13.54,41.68Z" />
            <path class="cls-1"
                d="m352.8,219.94h-57.4l9.39-28.91,57.46-94.93h-26.62l13.54-41.68h57.4l-9.39,28.91-57.61,94.93h26.77l-13.54,41.68Z" />
        </g>
        <g class="cls-4">
            <path class="cls-2"
                d="m15.47,96.58c-.18.18-.34.32-.48.41-.15.09-.28.18-.39.27-.12.09-.23.14-.35.14-.23.18-.51.41-.83.69-.64.55-1.01.87-1.09.96-.41.18-.83.41-1.26.69l-.87.55c-.12,0-.26.05-.43.14-.17.09-.32.14-.43.14s-.23-.05-.34-.14c-.12-.09-.23-.14-.34-.14l-.08-.27-.08-.27.36-1.1.41-1.23c.3-.73.54-1.3.74-1.71.19-.41.37-.82.54-1.23.16-.41.26-.66.29-.75.33-.64.73-1.51,1.21-2.61.48-1.1.75-1.73.81-1.92l3.45-10.42,3.63-10.97c.03-.09.01-.21-.06-.34-.07-.14-.13-.3-.19-.48h-.34c-.09.09-.28.18-.56.27-.29.09-.57.16-.84.21-.27.05-.67.16-1.19.34h-2.33c-.09-.09-.14-.18-.17-.27-.06-.18-.05-.36,0-.55l-.08-.27c-.03-.09.02-.32.14-.69.09-.27.19-.5.31-.69l.35-.55c.06-.18.16-.41.31-.69.32-.46.53-.73.62-.82.12-.18.38-.55.79-1.1.41-.55.67-.91.79-1.1.06-.18.29-.43.68-.75.39-.32.68-.57.85-.75.11,0,.51-.32,1.18-.96.67-.64,1.09-1.05,1.27-1.23.17,0,.35-.09.52-.27.09-.09.19-.23.31-.41l.27-.82.18-.55c0-.18.19-.96.56-2.33.37-1.37.77-2.88,1.2-4.53.43-1.64.84-3.17,1.22-4.59.38-1.42.59-2.26.62-2.54l.05-2.74c-.03-.27-.05-.71-.09-1.3-.03-.59-.11-.89-.22-.89,0-.36-.09-.94-.29-1.71-.2-.78-.33-1.26-.39-1.44-.12,0-.31-.21-.57-.62-.26-.41-.44-.66-.53-.75l-.12-.69.54-1.64.45-1.37c.06-.18.35-.66.86-1.44.51-.78.83-1.26.95-1.44.23-.36.73-.94,1.47-1.71.74-.78,1.2-1.26,1.38-1.44.26-.09.69-.32,1.3-.69.61-.36.99-.59,1.13-.69h1.29c.06,0,.22.12.49.34.27.23.54.48.83.75.28.27.55.5.81.69.25.18.44.27.56.27.2.27.51.62.95,1.03.44.41.71.62.83.62.23.18.57.41,1.02.69s.93.57,1.43.89c.5.32.94.62,1.34.89.4.27.64.46.72.55.12,0,.37.09.77.27.4.18.85.41,1.37.69.51.27,1.03.53,1.56.75.53.23.96.34,1.31.34.12,0,.42.11.92.34.5.23.89.34,1.18.34.08.09.25.21.49.34.24.14.49.25.75.34.26.09.51.16.75.21.24.05.39.07.45.07.4,0,1.04.07,1.91.21.87.14,1.8.3,2.77.48.97.18,1.9.34,2.77.48.87.14,1.5.25,1.87.34l.08.27.08.27-.54,1.64-.5,1.51-.75,1.23c-.21.27-.5.64-.88,1.1-.38.46-.76.92-1.14,1.37-.38.46-.76.92-1.14,1.37-.38.46-.62.73-.7.82l-10.61,29.21-1,.69,9.39-28.38-.44.27c-.09.09-.16.14-.22.14s-.1.05-.13.14c-.09.09-.37.75-.83,1.99-.47,1.23-.95,2.56-1.45,3.98-.5,1.42-1.18,3.27-2.05,5.55-.06.18-.24.37-.53.55l-.44.27,4.26-12.89c-.2-.09-.59-.18-1.16-.27-.57-.09-1.18-.16-1.83-.21-.65-.04-1.26-.11-1.83-.21-.57-.09-.98-.14-1.2-.14-.17,0-.43-.05-.77-.14-.34-.09-.71-.16-1.1-.21-.39-.05-.74-.11-1.05-.21-.31-.09-.53-.14-.64-.14-.14-.09-.52-.25-1.13-.48-.61-.23-1.26-.48-1.95-.75-.69-.27-1.34-.5-1.97-.69-.63-.18-1.03-.27-1.2-.27h-.34c-.06.18-.21.55-.45,1.1-.24.55-.33.92-.28,1.1-.03.09-.24.75-.61,1.99-.38,1.23-.8,2.58-1.25,4.04-.46,1.46-1.03,3.43-1.74,5.9.31.09.89.18,1.72.27.83.09,1.71.18,2.62.27.92.09,1.78.18,2.58.27.8.09,1.36.18,1.68.27.11,0,.39.09.81.27.43.18.7.27.81.27,0,.18.07.44.22.75.15.32.2.57.14.75l-.32.96-.41,1.23c-.06.18-.2.44-.42.75-.22.32-.36.57-.42.75-.24.37-.56.82-.97,1.37-.29.37-.53.64-.7.82-.24.37-.62.82-1.14,1.37-.53.55-.88.92-1.05,1.1-.29.18-.73.43-1.33.75-.59.32-.95.48-1.06.48-.09.09-.19.14-.3.14-.15.09-.33.14-.56.14-.17,0-.36-.05-.56-.14-.2-.09-.36-.14-.47-.14s-.46-.09-1.03-.27c-.57-.18-.94-.27-1.12-.27h-2.33l-6.3,19.06c.17,0,.69-.09,1.56-.27.86-.18,1.38-.27,1.56-.27.23,0,.69-.05,1.38-.14.69-.09,1.42-.16,2.18-.21.76-.05,1.49-.11,2.18-.21.69-.09,1.18-.14,1.47-.14-.02-.27-.03-.87-.01-1.78.01-.91.08-1.55.21-1.92.06-.18.19-.75.39-1.71.2-.96.36-1.62.49-1.99l.18-.55.14-.41c.06-.18.24-.55.53-1.1.3-.55.46-.87.49-.96.03-.09.19-.41.49-.96.15-.27.31-.5.49-.69.12-.18.39-.48.81-.89.42-.41.85-.84,1.29-1.3.44-.46.87-.89,1.29-1.3.42-.41.75-.71.98-.89.14-.09.34-.21.59-.34.25-.14.46-.3.63-.48h1.81c-.03.27-.05.5-.06.69-.03.27,0,.55.07.82-.06.18-.18.71-.35,1.58-.17.87-.27,1.35-.3,1.44,0,.37,0,1.1,0,2.19.01,1.1.01,1.83,0,2.19-.03.27,0,.78.1,1.51.1.73.17,1.23.19,1.51,0,.18.07.48.22.89.15.41.29.85.43,1.3.13.46.28.89.43,1.3.15.41.28.71.4.89.05.18.27.66.64,1.44.37.78.6,1.3.68,1.58.05.18.19.46.42.82.22.37.33.64.33.82.14.09.42.34.83.75.41.41.85.85,1.34,1.3.48.46.92.92,1.31,1.37.39.46.65.78.76.96.08.09.2.32.33.69.14.37.19.6.16.69l-.41,1.23-.54,1.65c-.06.18-.23.48-.51.89-.28.41-.45.62-.51.62-.21.27-.51.64-.92,1.1-.41.46-.83.92-1.27,1.37-.44.46-.86.91-1.27,1.37-.41.46-.69.73-.83.82-.12,0-.33.11-.63.34-.31.23-.52.34-.63.34h-2.33c-.12,0-.29-.07-.53-.21-.24-.14-.52-.3-.83-.48-.31-.18-.6-.37-.85-.55-.25-.18-.4-.32-.42-.41-.4-.18-.93-.43-1.6-.75-.67-.32-1.36-.62-2.07-.89-.71-.27-1.33-.52-1.86-.75-.53-.23-.85-.34-.96-.34s-.24-.05-.39-.14c-.28-.18-.46-.27-.51-.27s-.23.07-.5.21c-.28.14-.44.21-.5.21-.06.18-.23.6-.5,1.23-.27.64-.53,1.3-.79,1.99-.26.69-.52,1.35-.79,1.99-.27.64-.43,1.05-.49,1.23-.09.27-.38.91-.85,1.92-.48,1-.8,1.6-.98,1.78-.06.18-.22.46-.49.82-.26.36-.43.64-.49.82.06-.18.16-.53.3-1.03.14-.5.27-1.03.39-1.58.12-.55.26-1.08.39-1.58.14-.5.25-.89.34-1.17,0-.18.09-.62.26-1.3.17-.69.36-1.44.58-2.26.21-.82.43-1.6.64-2.33.21-.73.37-1.23.46-1.51l-.2-.69c-.12,0-.27.07-.46.21s-.34.21-.46.21l-7.21,21.8-1.83,3.7c-.09-.09-.09-.41-.03-.96.07-.55.13-.92.19-1.1.09-.27.21-.71.34-1.3.14-.6.31-1.23.51-1.92.2-.69.38-1.37.55-2.06.17-.69.3-1.17.39-1.44.15-.64.48-1.81.98-3.5.5-1.69,1.06-3.5,1.66-5.42.6-1.92,1.16-3.73,1.66-5.42.5-1.69.84-2.9,1.03-3.63h-9.31Z" />
            <path class="cls-2"
                d="m48.07,101.03c-.06-.59-.12-.98-.17-1.17.12-.18.31-.89.57-2.12.26-1.23.41-2.08.45-2.54,0-.18.06-.55.19-1.1.12-.55.26-1.14.42-1.78.15-.64.31-1.28.46-1.92.15-.64.25-1.1.28-1.37.06-.36.32-1.37.78-3.02.46-1.65,1-3.59,1.63-5.83.62-2.24,1.29-4.64,1.99-7.2.7-2.56,1.35-4.96,1.95-7.2.6-2.24,1.12-4.16,1.56-5.76.44-1.6.71-2.63.81-3.09.12-.73.38-1.85.77-3.36.38-1.51.58-2.44.59-2.81.03-.09.06-.34.08-.75.02-.41.05-.66.08-.75-.03-.09,0-.27.05-.55.06-.27.08-.55.06-.82,0-.36,0-.69-.03-.96.03-.09.11-.32.23-.69.12-.36.23-.59.31-.69l.32-.96c.09-.27.19-.5.31-.69.06-.18.35-.64.88-1.37.53-.73.91-1.28,1.15-1.65.06,0,.25-.16.59-.48.33-.32.69-.66,1.07-1.03.38-.36.76-.73,1.14-1.1.38-.36.66-.64.83-.82.14-.09.51-.27,1.09-.55.58-.27.92-.41,1.04-.41h.86c.11,0,.31.09.6.27l.08.27.12.41c-.03.27-.09.8-.18,1.58-.09.78-.14,1.3-.18,1.58-.03.09-.08.34-.16.75-.08.41-.17.89-.26,1.44-.1.55-.18,1.08-.26,1.58-.08.5-.15.94-.21,1.3-.09.27-.22.71-.39,1.3-.17.6-.33,1.21-.48,1.85-.16.64-.3,1.26-.44,1.85-.14.6-.24.98-.3,1.17-.06.18-.16.62-.3,1.3-.14.69-.3,1.4-.49,2.13-.19.73-.36,1.44-.53,2.12-.17.69-.27,1.08-.3,1.17.05.18.05.46-.01.82-.06.37-.07.64-.01.82.17-.18.5-.57.99-1.17.48-.59,1-1.23,1.54-1.92.54-.69,1.06-1.3,1.56-1.85.5-.55.83-.91,1.01-1.1.12-.18.67-.82,1.67-1.92.99-1.1,1.75-1.92,2.28-2.47.06,0,.18-.11.37-.34.19-.23.33-.29.41-.2.26-.27.72-.66,1.38-1.17.65-.5,1.07-.84,1.25-1.03.32-.09.91-.36,1.78-.82.87-.46,1.48-.78,1.83-.96.03.09.07.14.13.14h.43c.06,0,.11.02.15.07.04.05.12.07.24.07h.34c0,.18.06.37.21.55.14.18.25.32.34.41l.24,1.37c.05.18.08.57.09,1.17,0,.6,0,1.08,0,1.44.06,0,.04.23-.05.69-.1.46-.14.78-.15.96-.06.37-.22,1.4-.46,3.09-.25,1.69-.5,3.52-.78,5.48-.28,1.97-.55,3.82-.8,5.55-.26,1.74-.41,2.83-.44,3.29-.03.09-.08.37-.14.82-.07.46-.14.98-.22,1.58-.08.6-.17,1.19-.25,1.78-.08.6-.17,1.03-.26,1.3,0,.18-.18,1.1-.52,2.74-.34,1.65-.73,3.45-1.15,5.42-.42,1.97-.82,3.79-1.21,5.48-.39,1.69-.63,2.67-.72,2.95.08.09.08.44,0,1.03-.08.6-.15.98-.21,1.17-.15.27-.28.6-.4.96l-.31.69c-.09.27-.31.66-.64,1.17-.34.5-.57.75-.68.75-.06.18-.25.48-.55.89-.31.41-.65.85-1.03,1.3-.38.46-.76.91-1.14,1.37-.38.46-.62.73-.7.82-.12.18-.31.59-.58,1.23-.27.64-.55,1.32-.85,2.06-.3.73-.58,1.42-.85,2.06-.27.64-.43,1.05-.5,1.23.06-.18.08-.6.06-1.23-.02-.64.02-1.01.1-1.1.06-.18.18-.66.35-1.44.17-.78.29-1.26.35-1.44-.08-.09-.34-.07-.76.07-.42.14-.71.21-.89.21h-.26c-.17,0-.24-.05-.21-.14h-.78l-.12-.69c-.06-.18.05-.71.31-1.58.26-.87.36-1.39.31-1.58.03-.27.28-1.46.75-3.56.46-2.1.95-4.34,1.45-6.72.5-2.38.97-4.61,1.4-6.72.44-2.1.67-3.29.71-3.57.07-.55.21-1.55.44-3.02.22-1.46.43-2.99.61-4.59.18-1.6.37-3.13.57-4.59.2-1.46.34-2.51.44-3.15-.21.64-.72,2.12-1.52,4.46-.8,2.33-1.69,4.85-2.67,7.54-.98,2.7-1.9,5.19-2.77,7.47-.87,2.29-1.47,3.75-1.8,4.39-.12.37-.44,1.1-.94,2.19-.51,1.1-.89,1.78-1.15,2.06.06-.18.32-.98.79-2.4.47-1.42.98-2.95,1.52-4.59.54-1.65,1.05-3.18,1.52-4.59.47-1.42.73-2.22.79-2.4.09-.27.25-.8.48-1.58.23-.78.49-1.6.77-2.47.29-.87.56-1.69.82-2.47.26-.78.43-1.3.52-1.58.15-.46.41-1.21.79-2.26.38-1.05.76-2.17,1.15-3.36.39-1.19.78-2.31,1.15-3.36.38-1.05.62-1.76.75-2.12-.18.18-.45.53-.81,1.03-.37.5-.75,1.05-1.15,1.65-.4.6-.8,1.17-1.21,1.71-.41.55-.68.91-.79,1.1-.26.27-.68.87-1.24,1.78-.56.92-.97,1.51-1.24,1.78-.15.27-.38.71-.69,1.3-.31.6-.63,1.21-.96,1.85-.33.64-.64,1.23-.93,1.78-.3.55-.46.87-.49.96-.21.46-.67,1.65-1.39,3.56-.72,1.92-1.49,4.02-2.3,6.31-.81,2.29-1.56,4.41-2.24,6.38-.68,1.97-1.08,3.13-1.2,3.5-.24.37-.6.92-1.1,1.65-.5.73-.84,1.19-1.01,1.37-.12.18-.38.46-.79.82-.41.37-.83.78-1.27,1.23-.44.46-.85.89-1.25,1.3-.39.41-.62.71-.68.89-.09.09-.27.44-.56,1.03-.28.59-.6,1.28-.94,2.06-.34.78-.66,1.49-.96,2.13-.3.64-.51,1.05-.62,1.23-.03.09-.23.39-.6.89-.37.5-.58.84-.64,1.03l2.83-7.27c-.24.36-.58,1.01-1.02,1.92-.45.91-.9,1.9-1.36,2.95-.46,1.05-.9,2.03-1.32,2.95-.42.91-.72,1.55-.89,1.92-.09.27-.46.96-1.11,2.06-.65,1.1-1.05,1.78-1.2,2.06l5.04-13.16c-.06-.18-.11-.57-.17-1.17Z" />
            <path class="cls-2"
                d="m85.34,127.84c-.06,0-.22-.16-.49-.48-.27-.32-.52-.48-.75-.48-.2.09-.38.18-.52.27-.29.18-.48.41-.57.69h-.52c.06-.18.02-.5-.11-.96-.14-.46-.26-.69-.38-.69.03-.09-.18-.27-.64-.55-.46-.27-.72-.55-.81-.82-.12,0-.27-.14-.47-.41-.2-.27-.32-.5-.38-.69-.08-.09-.23-.3-.44-.62-.21-.32-.41-.64-.59-.96-.18-.32-.34-.62-.48-.89-.14-.27-.19-.46-.16-.55-.05-.18-.14-.62-.26-1.3-.12-.69-.24-1.44-.37-2.26-.13-.82-.23-1.6-.3-2.33-.07-.73-.12-1.23-.15-1.51.06-.37.15-1.23.26-2.6.11-1.37.21-2.38.31-3.02.03-.27.1-.71.21-1.3.11-.6.22-1.19.33-1.78.11-.6.21-1.12.31-1.58.09-.46.16-.73.19-.82l.27-.82c.15-.46.34-.87.58-1.23.12-.36.32-.84.6-1.44.28-.59.44-.94.47-1.03l.35-.55c.24-.36.41-.55.53-.55.09-.09.33-.3.72-.62.39-.32.81-.64,1.27-.96.45-.32.85-.62,1.2-.89.35-.27.6-.46.74-.55.06-.18.34-.43.85-.75.51-.32.79-.48.85-.48.12-.18.22-.32.31-.41l.39-.41c-.23,0-.57-.23-1.02-.69-.45-.46-.76-.78-.93-.96-.02-.46-.23-1.1-.61-1.92s-.68-1.28-.88-1.37c-.19-.46-.33-.91-.41-1.37-.22-.73-.38-1.46-.48-2.19-.03-.09-.04-.23-.04-.41,0-.18.06-.46.19-.82-.08-.27-.14-.91-.18-1.92-.04-1-.09-1.6-.14-1.78.03-.27.07-.87.11-1.78.04-.91.13-1.55.25-1.92-.02-.27.07-1.01.29-2.19.22-1.19.39-1.96.51-2.33.09-.27.24-.78.46-1.51.21-.73.35-1.19.41-1.37.48-1.1.87-1.99,1.19-2.67.31-.69.63-1.37.94-2.06.31-.69.56-1.21.74-1.58.27-.82.68-1.87,1.22-3.15.54-1.28.84-2.01.9-2.19.06-.18.41-.73,1.06-1.65.65-.91,1.13-1.6,1.46-2.06.35-.36.92-1.1,1.72-2.19.79-1.1,1.38-1.87,1.76-2.33.17-.18.48-.5.92-.96.44-.46.72-.78.83-.96.26-.27.72-.66,1.38-1.17.65-.5,1.33-1.03,2.03-1.58.7-.55,1.33-1.07,1.9-1.58.57-.5.94-.84,1.12-1.03.14-.09.69-.43,1.63-1.03.94-.59,1.71-1.07,2.29-1.44h.43c.11,0,.22-.02.32-.07.1-.04.21-.07.32-.07.23,0,.74-.18,1.52-.55.78-.36,1.23-.55,1.34-.55.2-.09.55-.11,1.06-.07.5.05.8.02.88-.07h.91c.43,0,.87.02,1.31.07.44.05.87.07,1.27.07h.78c.15-.46.57-1.3,1.27-2.54.69-1.23,1.16-2.03,1.4-2.4.09-.09.27-.41.53-.96.27-.55.49-.91.66-1.1.06-.18.31-.5.75-.96.44-.46.73-.73.88-.82.06-.18.33-.43.81-.75.48-.32.77-.48.89-.48.14-.09.37-.25.68-.48.3-.23.6-.43.89-.62.32-.27.64-.55.96-.82h1.21c.06,0,.14.05.26.14.11.09.21.18.3.27.11.18.21.32.29.41l.08.27.12.41c.14.46.04,1.01-.29,1.64-.12.37-.32,1.1-.6,2.19-.28,1.1-.58,2.29-.92,3.56-.34,1.28-.69,2.52-1.05,3.7-.36,1.19-.65,2.01-.86,2.47-.09.27-.24.78-.46,1.51-.21.73-.44,1.51-.68,2.33-.24.82-.48,1.62-.71,2.4-.23.78-.39,1.3-.48,1.58-.16.64-.47,1.62-.93,2.95-.47,1.33-.72,2.04-.75,2.12-.24.73-.72,1.99-1.42,3.77-.71,1.78-1.46,3.66-2.25,5.62-.79,1.97-1.56,3.82-2.31,5.55-.75,1.74-1.28,2.93-1.61,3.56-.12.37-.22.89-.31,1.58-.08.69-.19,1.21-.31,1.58-.15.27-.35.87-.59,1.78-.25.92-.49,1.92-.74,3.02-.25,1.1-.48,2.1-.7,3.02-.22.92-.34,1.51-.37,1.78,0,.18-.07.53-.21,1.03-.14.5-.29,1.05-.46,1.65-.17.6-.33,1.17-.48,1.71-.15.55-.27.96-.37,1.23-.06.37-.2.98-.4,1.85-.2.87-.44,1.81-.71,2.81-.28,1.01-.53,1.94-.76,2.81-.23.87-.39,1.44-.48,1.71-.27.46-.52,1.14-.77,2.06-.25.92-.4,1.46-.46,1.65-.06.18-.41,1-1.03,2.47-.63,1.46-1.06,2.56-1.3,3.29-.18.55-.64,1.55-1.39,3.02-.74,1.46-1.2,2.47-1.39,3.02-.03.09-.21.41-.53.96-.33.55-.55.82-.66.82-.35.36-.8.94-1.34,1.71-.54.78-.88,1.26-.99,1.44-.15.09-.4.34-.77.75-.37.41-.61.62-.72.62-.12.18-.37.46-.75.82-.38.36-.79.73-1.23,1.1-.44.36-.87.71-1.29,1.03-.42.32-.68.52-.76.62-.03.09-.25.21-.67.34-.42.14-.77.3-1.06.48-.12.18-.57.5-1.35.96-.78.46-1.3.73-1.56.82-.21.27-.52.8-.95,1.58-.43.78-.86,1.58-1.31,2.4-.44.82-.84,1.6-1.2,2.33-.36.73-.58,1.23-.67,1.51-.06.18-.24.55-.53,1.1-.3.55-.52.87-.66.96h-.34c.03-.09.1-.34.21-.75.11-.41.23-.87.37-1.37.14-.5.28-.94.43-1.3.15-.37.31-.64.49-.82.09-.46.31-1.14.64-2.06.33-.92.56-1.56.68-1.92Zm3.47-34.96c-.03.27-.09.85-.18,1.71-.09.87-.2,1.81-.33,2.81-.13,1.01-.26,1.97-.39,2.88-.13.92-.25,1.55-.38,1.92-.09.27-.14.64-.15,1.1,0,.46,0,.94,0,1.44,0,.5.02.98.04,1.44.02.46.06.78.11.96-.09.27-.08.94.03,1.99.11,1.05.24,1.8.37,2.26.05.18.19.46.42.82.22.36.3.73.24,1.1.05.18.14.36.25.55.14.27.35.41.64.41.05.18.23.43.53.75.29.32.5.48.62.48.08.09.21.14.39.14.14.09.36.14.64.14.05.18.22.3.49.34.27.05.46.07.58.07l.44-.27c.35-.18.54-.32.57-.41.18-.18.49-.67.95-1.44.46-.78.72-1.26.78-1.44.15-.46.31-1.03.48-1.71.17-.69.28-1.12.34-1.3.35-.37.71-1.1,1.07-2.19s.55-1.83.55-2.19c0-.18.11-.69.33-1.51.21-.82.47-1.74.78-2.74.3-1,.61-1.96.91-2.88.3-.91.59-1.6.85-2.06,0-.18.04-.52.13-1.03.08-.5.19-1.05.33-1.64.14-.59.3-1.17.48-1.71.18-.55.37-.96.58-1.23.06-.18.1-.39.12-.62.02-.23.03-.43.03-.62l.1-.82c-.06,0-.1-.05-.13-.14l-.08-.27-.39.41c-.18.18-.55.44-1.11.75-.57.32-1.16.64-1.78.96-.62.32-1.2.64-1.74.96-.54.32-.91.53-1.11.62-.18.18-.4.3-.67.34-.27.05-.44.16-.5.34-.06-.18-.27-.23-.64-.14-.38.09-.62.14-.73.14-.23,0-.61.07-1.14.21-.53.14-.86.21-.97.21-.2.09-.66.14-1.38.14h-1.34Zm8.06-36.61c-.12.37-.36.92-.72,1.65-.18.37-.33.73-.45,1.1-.15.27-.38.91-.68,1.92-.31,1.01-.49,1.6-.55,1.78.05.18-.06.85-.36,1.99-.29,1.14-.54,2.04-.76,2.67.05.18.06.48,0,.89-.05.41-.02.62.1.62,0,.37-.04.82-.11,1.37-.07.37-.1.64-.1.82,0,.18.03.53.09,1.03.06.5.13,1.05.19,1.65.06.6.13,1.17.21,1.71.08.55.16.96.24,1.23.11,0,.23.21.36.62.12.41.17.66.14.75.17,0,.38.23.63.69.25.46.43.87.54,1.23.06,0,.19.21.4.62s.37.62.48.62h.95c.29,0,.54.05.77.14.23.09.38.18.47.27.14.09.48.21,1.01.34s.91.21,1.14.21l.53-.55c.18-.18.42-.57.73-1.17.31-.59.6-1.03.86-1.3.23-.18.44-.41.61-.69.18-.27.34-.55.49-.82.18-.36.34-.69.49-.96l.54-1.64.41-1.23c.27-.64.65-1.71,1.15-3.22.5-1.51.98-3.06,1.46-4.66.47-1.6.91-3.13,1.3-4.59.4-1.46.63-2.47.7-3.02.03-.27.16-.78.37-1.51.21-.73.43-1.46.64-2.19.21-.73.42-1.46.64-2.19.21-.73.37-1.23.46-1.51.03-.09.03-.32.01-.69-.02-.36-.02-.59.01-.69-.12,0-.26-.21-.44-.62-.18-.41-.36-.62-.53-.62-.11-.36-.34-.64-.68-.82-.34-.18-.56-.32-.64-.41-.4,0-.62-.14-.64-.41l-9.27,20.98h-.6c-.06,0-.02-.21.12-.62.14-.41.29-.89.48-1.44.18-.55.38-1.12.61-1.71.22-.59.4-1.07.52-1.44.27-.64.73-1.74,1.39-3.29.66-1.55,1.35-3.2,2.06-4.94.72-1.74,1.39-3.38,2.02-4.94.63-1.55,1.08-2.65,1.35-3.29l-1.14,1.1-3.67,7.95-1.13.82.59-1.78c.09-.27.27-.78.54-1.51.27-.73.55-1.48.83-2.26.29-.78.56-1.51.81-2.19.25-.69.46-1.17.61-1.44h-.34l-.17-.27c-.12,0-.5.16-1.15.48-.65.32-1.07.57-1.24.75-.06,0-.39.23-1,.69-.15.27-.46.71-.95,1.3-.49.6-.83,1.03-1.03,1.3-.06.18-.29.62-.69,1.3-.4.69-.61,1.08-.64,1.17-.06.18-.27.6-.62,1.23-.36.64-.61,1.19-.76,1.65Z" />
            <path class="cls-2"
                d="m110.95,95.75c.06-.18.36-.66.91-1.44.54-.78.9-1.26,1.08-1.44l2.31-6.99,2.36-7.13c.03-.27.21-1.03.53-2.26.32-1.23.67-2.6,1.06-4.11.38-1.51.77-2.99,1.17-4.46.4-1.46.7-2.6.92-3.43.12-.36.33-1.21.62-2.54.29-1.32.64-2.81,1.04-4.46.4-1.65.81-3.27,1.22-4.87.41-1.6.71-2.76.9-3.5.07-.55.19-1.28.38-2.19.19-.91.4-1.85.63-2.81.23-.96.42-1.8.58-2.54.15-.73.26-1.19.32-1.37.03-.09.06-.3.08-.62.02-.32.03-.66.04-1.03-.05-.36-.06-.77-.02-1.23l.27-.82.18-.55c.06-.18.25-.57.56-1.17.31-.59.5-.98.56-1.17.33-.64.7-1.23,1.11-1.78.24-.36.52-.78.84-1.23.29-.36.88-1,1.76-1.92.88-.91,1.48-1.51,1.8-1.78.17-.18.56-.43,1.15-.75.59-.32,1.01-.57,1.24-.75h1.03c.05.18.13.43.22.75.09.32.11.57.05.75.11,0,.05.5-.2,1.51-.25,1.01-.42,1.74-.51,2.19-.1.46-.24,1.12-.44,1.99-.2.87-.4,1.78-.61,2.74-.2.96-.4,1.85-.58,2.67-.19.82-.3,1.37-.33,1.64-.16.64-.42,1.71-.81,3.22-.38,1.51-.78,3.08-1.18,4.73-.4,1.65-.76,3.18-1.09,4.59-.33,1.42-.56,2.35-.71,2.81-.12.55-.35,1.44-.67,2.67s-.65,2.52-.97,3.84c-.32,1.33-.64,2.58-.95,3.77-.31,1.19-.49,1.97-.56,2.33-.18.55-.4,1.3-.66,2.26-.26.96-.54,1.94-.85,2.95-.3,1.01-.56,1.92-.78,2.74-.22.82-.37,1.37-.46,1.65l-3.27,9.87-3.13,9.46c-.06.18-.36.66-.91,1.44-.55.78-.9,1.26-1.08,1.44-.24.37-.66.94-1.26,1.71-.6.78-.96,1.26-1.08,1.44-.09.27-.31.84-.65,1.71-.34.87-.68,1.76-1.01,2.67-.33.91-.67,1.8-1.01,2.67-.35.87-.56,1.44-.65,1.71-.18.18-.43.66-.78,1.44-.34.77-.63,1.35-.87,1.71.03-.09.04-.21.03-.34-.01-.14-.02-.3-.01-.48,0-.18.02-.41.06-.69.09-.27.24-.82.46-1.65.21-.82.44-1.67.67-2.54.23-.87.45-1.71.67-2.54.21-.82.37-1.37.46-1.65l-7.12,21.53-1.57,3.7c.03-.09.1-.39.21-.89.11-.5.24-1.03.39-1.58.15-.55.28-1.08.39-1.58.11-.5.19-.85.25-1.03.03-.27.23-1.08.58-2.4.35-1.33.76-2.77,1.21-4.32.46-1.55.89-2.99,1.3-4.32.41-1.33.66-2.12.75-2.4.12-.37.26-.89.43-1.58.17-.69.36-1.39.57-2.12.21-.73.38-1.37.51-1.92.12-.55.22-.92.28-1.1-.08-.27-.12-.6-.11-.96-.02-.27-.05-.5-.07-.69-.03-.18-.02-.32,0-.41-.05-.18-.07-.41-.03-.69.07-.55.11-.87.14-.96-.12,0-.25-.2-.4-.62-.15-.41-.2-.71-.14-.89l.54-1.65.68-2.06Z" />
            <path class="cls-2"
                d="m118.2,115.5l4.17-12.61c-.17-.18-.41-.46-.72-.82-.31-.37-.55-.64-.72-.82.03-.27.05-.5.05-.69,0-.36.02-.59.05-.69.06-.18.18-.77.37-1.78.19-1.01.33-1.65.42-1.92.03-.27.11-.73.24-1.37.12-.64.27-1.3.44-1.99.17-.69.35-1.37.55-2.06.2-.69.34-1.17.43-1.44.31-1.1.74-2.63,1.3-4.59.56-1.96,1.14-3.98,1.74-6.03.59-2.06,1.12-3.91,1.58-5.55.46-1.65.7-2.6.74-2.88l1.86-5.62,1.81-5.48c.24-.36.58-.94,1.04-1.71.46-.78.77-1.26.95-1.44.17-.18.63-.66,1.38-1.44.74-.77,1.23-1.26,1.47-1.44.21-.27.55-.57,1.03-.89.48-.32.78-.48.89-.48.06,0,.28-.07.67-.21.39-.14.64-.21.76-.21.06,0,.23.09.51.27.14.09.27.14.39.14l-.11,1.37c-.12.55-.41,1.58-.85,3.09-.44,1.51-.92,3.08-1.44,4.73-.52,1.65-.99,3.2-1.41,4.66-.43,1.46-.73,2.47-.91,3.02-.18.55-.49,1.6-.91,3.15-.43,1.56-.89,3.25-1.38,5.07-.49,1.83-.95,3.56-1.38,5.21-.43,1.65-.74,2.83-.92,3.56-.06.18-.15.55-.28,1.1-.12.55-.27,1.12-.44,1.71-.17.6-.3,1.12-.39,1.58-.1.46-.16.73-.19.82l-.54,1.64-.45,1.37c-.06.18-.26.57-.6,1.17-.34.6-.54.98-.6,1.17-.15.09-.47.46-.97,1.1-.29.37-.54.69-.75.96-.3.55-.65,1.1-1.06,1.64-.24.73-.72,2.08-1.42,4.04-.71,1.96-1.47,4.05-2.28,6.24-.81,2.19-1.58,4.25-2.3,6.17-.72,1.92-1.25,3.29-1.58,4.11-.06.18-.35.84-.87,1.99-.52,1.14-.95,2.03-1.27,2.67-.12.36-.41,1.03-.87,1.99-.46.96-.72,1.53-.78,1.71-.06.18-.24.55-.53,1.1-.3.55-.52.87-.66.96l4.9-14.81-.16-.55Zm27.31-95.84c.03-.09.08-.21.16-.34.07-.14.13-.25.16-.34.03-.09.09-.18.18-.27.18-.36.56-.87,1.15-1.51.58-.64.94-1.05,1.05-1.23.06,0,.25-.11.59-.34.33-.23.71-.5,1.13-.82.42-.32.82-.62,1.2-.89.38-.27.67-.46.87-.55.14-.09.33-.14.56-.14h.52l.43.27c.14.09.36.14.64.14.17.18.32.32.47.41.08.09.2.18.34.27-.15.46-.26.87-.32,1.23-.19.92-.3,1.51-.33,1.78-.06.18-.18.6-.37,1.23-.18.64-.38,1.33-.59,2.06-.21.73-.41,1.46-.6,2.19-.19.73-.34,1.28-.46,1.65-.27.82-.64,1.94-1.11,3.36-.47,1.42-.92,2.81-1.34,4.18-.43,1.37-.81,2.61-1.14,3.7-.33,1.1-.5,1.74-.51,1.92-.18.37-.34.69-.49.96-.3.55-.52.96-.67,1.23-.12.18-.22.39-.29.62-.08.23-.17.43-.29.62-.15.27-.28.5-.4.69-.23.18-.53.57-.9,1.17-.37.6-.61.89-.73.89-.15.09-.47.32-.96.69-.5.37-1.02.73-1.57,1.1-.55.37-1.08.71-1.59,1.03-.51.32-.86.53-1.06.62-.06.18-.28.27-.65.27s-.68.09-.91.27l-.13-.14h-.26c0-.18-.06-.43-.18-.75-.12-.32-.13-.57,0-.75.09-.09.25-.55.5-1.37.24-.82.38-1.28.41-1.37.15-.64.43-1.62.85-2.95.41-1.32.85-2.7,1.32-4.11.47-1.42.9-2.72,1.29-3.91.39-1.19.65-1.96.77-2.33.06-.18.21-.73.46-1.65.24-.91.51-1.9.8-2.95.29-1.05.59-2.03.89-2.95.3-.91.48-1.46.54-1.64.06-.18.15-.36.27-.55.06-.18.12-.32.18-.41.06-.09.1-.18.13-.27Z" />
            <path class="cls-2"
                d="m152.31,103.29c-.12,0-.19-.02-.24-.07-.04-.05-.12-.07-.24-.07h-.26c-.06.18-.15.27-.26.27s-.19.05-.22.14c-.29.36-.77,1.07-1.44,2.13-.66,1.05-1.09,1.76-1.26,2.12.06-.18.18-.5.36-.96.18-.46.3-.78.36-.96-.03-.09.1-.64.37-1.64.28-1.01.47-1.69.59-2.06-.17,0-.43-.14-.77-.41s-.7-.55-1.06-.82c-.37-.27-.74-.55-1.11-.82-.37-.27-.64-.41-.81-.41-.14-.09-.33-.29-.57-.62-.24-.32-.49-.69-.76-1.1-.27-.41-.5-.8-.69-1.17-.2-.36-.32-.64-.37-.82-.12,0-.25-.11-.4-.34-.16-.23-.31-.52-.48-.89-.17-.36-.33-.69-.5-.96-.17-.27-.28-.5-.33-.69-.11-.18-.21-.41-.29-.69l-.37-1.23c-.05-.36-.12-.89-.21-1.58-.09-.69-.16-1.12-.21-1.3-.06-.18-.14-.71-.25-1.58-.12-.87-.18-1.44-.21-1.71-.12,0-.12-.34,0-1.03.11-.69.2-1.21.26-1.58.06-.18.15-.71.26-1.58.12-.87.17-1.39.18-1.58.09-.27.2-.71.34-1.3.14-.59.24-.98.3-1.17.21-.46.4-.87.58-1.23.18-.36.35-.71.51-1.03.16-.32.27-.57.34-.75.15-.46.4-1.05.76-1.78l.54-1.1c.12-.18.26-.23.43-.14.17.09.33.21.49.34.16.14.31.27.47.41.16.14.31.16.45.07l.27-.82c-.09-.09-.29-.3-.61-.62-.32-.32-.66-.69-1.01-1.1-.35-.41-.67-.84-.95-1.3-.28-.46-.4-.82-.37-1.1-.06,0-.17-.34-.35-1.03-.18-.69-.26-1.21-.25-1.58-.08-.09-.14-.34-.18-.75-.04-.41-.04-.66,0-.75.06-.18.09-.57.08-1.17,0-.59,0-.98,0-1.17.03-.46.14-1.12.31-1.99.17-.87.29-1.48.35-1.85.67-5.48,1.72-9.96,3.15-13.44,1.44-3.47,3.09-6.1,4.98-7.88,1.88-1.78,3.9-2.81,6.06-3.08,2.16-.27,4.28.05,6.36.96,2.08.92,4.03,2.31,5.85,4.18,1.82,1.88,3.33,4.09,4.52,6.65,1.19,2.56,1.99,5.37,2.38,8.43.39,3.06.23,6.19-.48,9.39-.12.18-.19.32-.22.41l-.04.14-.04-.14c-.08-.09-.16-.23-.21-.41-.08-.09-.17-.18-.25-.27-.08-.09-.2-.09-.34,0-.06.18-.39.75-1,1.71-.61.96-.94,1.53-1,1.71-.18.18-.44.41-.79.69-.35.27-.61.5-.79.69-.06,0-.34.21-.85.62-.51.41-.85.71-1.03.89-.12,0-.22-.02-.32-.07-.1-.05-.24-.07-.41-.07-.23,0-.42-.05-.56-.14h-.26c-.29,0-.44-.05-.47-.14h-.52c-.12,0-.12-.11-.02-.34.1-.23.1-.34-.02-.34.12-.18.17-.48.17-.89,0-.41.02-.71.08-.89.03-.09.11-.43.25-1.03.14-.59.21-1.07.22-1.44.7-.73,1.22-1.51,1.55-2.33.33-.82.54-1.62.62-2.4.08-.78.04-1.42-.14-1.92-.18-.5-.4-.8-.65-.89-.06,0-.17-.5-.32-1.51-.16-1-.33-2.08-.53-3.22-.2-1.14-.38-2.19-.55-3.15-.17-.96-.29-1.44-.34-1.44-.06.18,0-.07.16-.75.17-.69.21-.98.12-.89-.24.37-.56,1.01-.98,1.92-.18.37-.33.73-.45,1.1-.3.73-.78,1.83-1.43,3.29-.66,1.46-1.36,3.02-2.1,4.66-.75,1.65-1.45,3.2-2.1,4.66-.66,1.46-1.09,2.52-1.3,3.15.3,1.01.81,1.9,1.53,2.67.72.78,1.33,1.53,1.84,2.26.11,0,.43.14.94.41.51.27,1.07.57,1.69.89.61.32,1.17.69,1.66,1.1.5.41.77.8.82,1.17.05.18.17.43.35.75.18.32.4.62.65.89.25.27.47.55.63.82.17.27.31.41.42.41.08.46.33,1.03.77,1.71.43.69.68,1.21.73,1.58.03.09.12.32.29.69.17.37.32.75.48,1.17.15.41.29.8.43,1.17.14.37.25.6.33.69.05.18.13.48.22.89.09.41.19.85.3,1.3.11.46.21.87.32,1.23.11.37.22.55.33.55,0,.18.05.85.16,1.99.11,1.14.2,1.94.28,2.4-.06.18-.12.46-.19.82-.07.37-.12.64-.19.82-.15.27-.28.5-.4.69-.3.55-.46.87-.49.96-.12.18-.25.5-.4.96-.15.46-.29.78-.4.96-.06.18-.25.5-.58.96-.32.46-.53.73-.62.82-.18.18-.53.53-1.07,1.03-.54.5-.84.85-.9,1.03-.26.27-.82.75-1.68,1.44-.86.69-1.46,1.21-1.81,1.58-.23.18-.59.36-1.09.55-.49.18-.87.32-1.13.41-.23.18-.62.34-1.15.48-.53.14-.89.3-1.06.48-.35.18-.92.34-1.71.48-.79.14-1.29.25-1.49.34-.14-.09-.43-.14-.86-.14h-3.75l-6.27,17.14h-.34c.03-.09.1-.34.21-.75.11-.41.24-.85.39-1.3.15-.46.32-.89.52-1.3.19-.41.36-.67.51-.75.12-.55.34-1.46.65-2.74.31-1.28.65-2.65,1.02-4.11.37-1.46.74-2.83,1.1-4.11.37-1.28.7-2.19.99-2.74h-.52Zm-.25-31.54c-.06.18-.18.37-.35.55l-.26.27c0,.37-.08.94-.22,1.71-.14.78-.22,1.26-.22,1.44.02.27.06.69.11,1.23.05.55.11,1.14.19,1.78.07.64.16,1.21.25,1.71.09.5.18.89.26,1.17-.06.18-.04.6.07,1.23.1.64.18,1.05.24,1.23.11.18.38.6.8,1.23.42.64.64,1.19.66,1.65.14.09.38.46.71,1.1.33.64.62.96.85.96.11.18.25.37.42.55.34.37.59.55.77.55.19.46.53.82,1.02,1.1.23.18.5.32.81.41.06,0,.22.07.49.21.27.14.58.27.94.41.36.14.71.27,1.07.41.36.14.62.21.79.21.11,0,.28.05.51.14.23.09.47.18.73.27.23.18.5.32.81.41l.74-.69c-.09-.09-.14-.18-.17-.27l-.12-.41c-.08-.27-.15-.59-.2-.96-.06-.18-.12-.39-.18-.62-.07-.23-.14-.39-.23-.48-.08-.27-.24-.75-.47-1.44-.23-.69-.38-1.12-.43-1.3-.09-.09-.25-.39-.48-.89-.24-.5-.49-1.03-.77-1.58-.28-.55-.54-1.1-.79-1.64-.25-.55-.42-.96-.5-1.23-.06,0-.15-.11-.27-.34-.13-.23-.28-.5-.46-.82-.18-.32-.38-.64-.59-.96-.21-.32-.39-.52-.53-.62-.17-.18-.42-.64-.75-1.37-.33-.73-.53-1.1-.59-1.1-.23-.18-.54-.52-.95-1.03-.41-.5-.85-1.05-1.31-1.65-.46-.59-.91-1.17-1.33-1.71-.42-.55-.72-1-.88-1.37l-.18.55Zm3.25-24.68c-.15.27-.42.82-.8,1.65-.39.82-.6,1.28-.63,1.37-.12.18-.22.66-.3,1.44-.08.78-.13,1.35-.14,1.71-.13.73-.03,1.35.29,1.85.32.5.54.85.65,1.03.03.09.12.3.27.62.15.32.33.69.54,1.1.21.41.4.82.58,1.23.18.41.3.71.35.89.46.18.78.69.97,1.51.19.82.61,1.37,1.27,1.64.12-.36.27-.69.45-.96.18-.27.33-.59.45-.96.42-1.1,1.01-2.54,1.77-4.32.76-1.78,1.52-3.56,2.29-5.35.76-1.78,1.46-3.36,2.08-4.73.63-1.37.97-2.15,1.03-2.33.09-.27.2-.62.34-1.03.14-.41.16-.62.07-.62s-.32.37-.71,1.1c-.39.73-1.03,2.1-1.92,4.11l-.79.82c.06-.18.15-.57.26-1.17.11-.59.18-.94.21-1.03.12-.36.22-.57.29-.62.07-.04.15-.21.25-.48.67-.46.98-.94.95-1.44-.04-.5-.3-.96-.8-1.37-.5-.41-1.19-.66-2.08-.75-.89-.09-1.77-.02-2.65.2-.88.23-1.74.73-2.57,1.51-.83.78-1.49,1.9-1.97,3.36Z" />
            <path class="cls-2"
                d="m195.53,16.91c.12-.18.25-.41.4-.69.3-.55.46-.87.49-.96.17-.18.48-.55.92-1.1.44-.55.67-.87.71-.96.18-.18.53-.57,1.08-1.17.54-.59.9-.98,1.08-1.17.14-.09.49-.34,1.02-.75.54-.41.86-.62.98-.62.06-.18.29-.36.7-.55.4-.18.72-.36.96-.55h.43l.49,1.65c0,.18-.01.44-.03.75-.02.32-.06.57-.12.75.02.27-.1.98-.36,2.13-.26,1.14-.44,1.85-.53,2.12-.12.37-.46,1.44-1.02,3.22-.56,1.78-1.26,3.98-2.09,6.58-.83,2.61-1.72,5.37-2.66,8.3-.94,2.93-1.82,5.67-2.64,8.23-.82,2.56-1.52,4.75-2.09,6.58-.58,1.83-.91,2.88-1,3.15.2-.09.51-.34.94-.75.42-.41.89-.87,1.4-1.37.51-.5.99-.94,1.42-1.3.43-.36.77-.64,1-.82.12-.18.41-.46.88-.82.46-.36.78-.64.96-.82.12,0,.33-.11.63-.34.3-.23.51-.34.63-.34s.26-.05.43-.14c.17-.09.33-.18.48-.27.2-.09.42-.23.65-.41h3.36l1.4,1.51c.14.27.34.87.62,1.78.27.92.43,1.56.48,1.92.05.18.1.75.12,1.71.03.96,0,1.62-.06,1.99,0,.18,0,.5-.02.96,0,.46-.03.96-.07,1.51-.04.55-.08,1.1-.11,1.65-.04.55-.07.96-.11,1.23-.06.18-.11.55-.15,1.1-.04.55-.1,1.17-.18,1.85-.08.69-.19,1.4-.32,2.13-.13.73-.22,1.28-.29,1.65,0,.18-.02.5-.06.96-.04.46-.08.94-.13,1.44-.05.5-.11.98-.17,1.44-.07.46-.14.82-.23,1.1-.12.37-.3,1.26-.54,2.67-.24,1.42-.5,2.93-.76,4.53-.27,1.6-.51,3.11-.72,4.52-.21,1.42-.33,2.26-.37,2.54-.06.18-.11.5-.14.96-.04.46-.11.98-.22,1.58-.11.6-.21,1.14-.29,1.65-.08.5-.14.8-.17.89,0,.37-.1.94-.27,1.71-.17.78-.29,1.26-.35,1.44l-.14.41-.05.14c-.06.18-.32.66-.78,1.44-.46.78-.81,1.35-1.04,1.71-.18.18-.46.55-.84,1.1-.38.55-.66.92-.84,1.1-.12.18-.22.32-.31.41-.18.18-.35.27-.52.27-.15.09-.45.32-.92.69-.47.37-.74.6-.83.69-.44.46-.86.69-1.26.69-.09.09-.21.18-.35.27-.15.09-.33.14-.56.14-.29,0-.47-.05-.56-.14l-.25-.27c-.06,0-.1-.05-.13-.14-.03-.09-.08-.16-.15-.21-.07-.04-.11-.16-.1-.34.03-.09.03-.32.01-.69-.02-.36-.02-.59.01-.69.06-.18.13-.57.21-1.17.08-.59.15-.98.21-1.17.04-.46.2-1.55.49-3.29.29-1.73.62-3.61,1-5.62.38-2.01.71-3.88,1-5.62.29-1.73.48-2.83.57-3.29,0-.36.11-1.21.32-2.54.21-1.32.33-2.21.37-2.67.03-.27.09-.71.17-1.3.08-.59.16-1.23.25-1.92.08-.69.16-1.35.23-1.99.07-.64.15-1.1.24-1.37s.14-.87.16-1.78c.01-.91.02-1.55.03-1.92.03-.09.03-.18,0-.27-.06-.18-.07-.32-.04-.41,0-.18.02-.41.05-.69,0-.18-.04-.57-.13-1.17-.09-.59-.17-.98-.22-1.17l-3.4,10.28c-.06-.18,0-.75.18-1.71.17-.96.26-1.62.27-1.99.09-.27.24-.82.46-1.65.21-.82.47-1.71.75-2.67.29-.96.54-1.85.76-2.67.21-.82.37-1.37.46-1.65,0-.18-.04-.5-.11-.96-.08-.46-.15-.69-.2-.69-.09-.09-.2-.25-.36-.48-.15-.23-.29-.34-.4-.34-.06.18-.27.44-.64.75-.36.32-.63.57-.81.75-.27.46-.7,1.28-1.29,2.47-.6,1.19-.94,1.92-1.03,2.19l-11.7,35.38c-.06.18-.29.66-.69,1.44-.4.78-.72,1.35-.96,1.71-.06.18-.35.66-.86,1.44-.51.77-.86,1.26-1.04,1.44-.21.27-.76.87-1.67,1.78-.91.91-1.53,1.55-1.89,1.92-.14.09-.46.34-.94.75-.48.41-.78.62-.89.62h-2.33l-.25-.55c0-.18.01-.44.03-.75.02-.32,0-.57-.05-.75.09-.27.2-.78.33-1.51.13-.73.24-1.23.33-1.51.18-.55.44-1.56.78-3.02.34-1.46.6-2.47.78-3.02.12-.55.34-1.42.65-2.6.31-1.19.65-2.44,1.03-3.77.38-1.32.75-2.56,1.1-3.7.35-1.14.6-1.94.75-2.4.18-.55.52-1.62,1.02-3.22.5-1.6,1.09-3.47,1.77-5.62.68-2.15,1.41-4.43,2.18-6.86.77-2.42,1.5-4.71,2.18-6.86.68-2.15,1.26-4,1.75-5.55.48-1.55.82-2.6,1-3.15.06-.18.34-1.07.84-2.67.5-1.6,1.11-3.52,1.82-5.76.71-2.24,1.48-4.66,2.32-7.27.83-2.6,1.61-5.05,2.34-7.34.72-2.28,1.32-4.2,1.77-5.76.46-1.55.71-2.42.78-2.61-.03-.09-.03-.18,0-.27.03-.09.04-.16.02-.21-.01-.04,0-.11.03-.21,0-.18.02-.41.05-.69l.63-1.92.59-1.78Z" />
        </g>
    </svg>